<svg xmlns="http://www.w3.org/2000/svg" version="1.1" xmlns:xlink="http://www.w3.org/1999/xlink" xmlns:svgjs="http://svgjs.dev/svgjs" width="57" height="62"><svg xmlns="http://www.w3.org/2000/svg" width="57" height="62" viewBox="0 0 57 62" fill="none"><path d="M24.4307 0H25.7073V35.4705C25.7073 36.6346 25.4788 37.7873 25.0348 38.8628C24.5909 39.9383 23.9402 40.9156 23.1199 41.7387C22.2995 42.5619 21.3257 43.2149 20.2539 43.6603C19.1821 44.1058 18.0334 44.3351 16.8733 44.3351V7.58657C16.8733 5.575 17.6694 3.64577 19.0866 2.22309C20.5038 0.800418 22.4261 0.000777271 24.4307 0V0Z" fill="#0a192f"></path><path d="M10.4757 17.6707H11.2878V44.3908H10.4757C7.69738 44.3908 5.03284 43.2833 3.06826 41.3119C1.10369 39.3405 0 36.6667 0 33.8787L0 28.1829C0 25.3949 1.10369 22.7211 3.06826 20.7497C5.03284 18.7783 7.69738 17.6707 10.4757 17.6707Z" fill="#0a192f"></path><path d="M31.4125 62L31.4125 26.5295C31.4125 24.1785 32.3432 21.9237 33.9999 20.2613C35.6566 18.5988 37.9036 17.6649 40.2465 17.6649L40.2465 53.1353C40.2465 55.4864 39.3157 57.7411 37.6591 59.4036C36.0024 61.066 33.7554 62 31.4125 62Z" fill="#0a192f"></path><path d="M45.7093 44.3293V17.6092C48.7037 17.6092 51.5756 18.8029 53.693 20.9277C55.8104 23.0525 57 25.9343 57 28.9392V33.0022C56.9992 36.0066 55.8093 38.8877 53.692 41.0118C51.5746 43.136 48.7032 44.3293 45.7093 44.3293Z" fill="#0a192f"></path><path d="M13.4992 17.6707H11.168V18.1632H13.4992V17.6707Z" fill="#0a192f"></path><path d="M13.4992 43.8983H11.168V44.3908H13.4992V43.8983Z" fill="#0a192f"></path><path d="M45.8933 17.6092H43.5621V18.1017H45.8933V17.6092Z" fill="#0a192f"></path><path d="M45.8933 43.8368H43.5621V44.3293H45.8933V43.8368Z" fill="#0a192f"></path></svg><style>@media (prefers-color-scheme: light) { :root { filter: none; } }
@media (prefers-color-scheme: dark) { :root { filter: none; } }
</style></svg>